<mxfile host="app.diagrams.net" modified="2022-08-07T14:29:11.123Z" agent="5.0 (Macintosh; Intel Mac OS X 10_15_7) AppleWebKit/537.36 (KHTML, like Gecko) Chrome/103.0.0.0 Safari/537.36" etag="Lk5o656nkTJgFK3jHs_4" version="20.2.3" type="github">
  <diagram id="DuM10fJLJAl_LMzetCjs" name="Page-1">
    <mxGraphModel dx="1426" dy="1938" grid="1" gridSize="10" guides="1" tooltips="1" connect="1" arrows="1" fold="1" page="1" pageScale="1" pageWidth="827" pageHeight="1169" math="0" shadow="0">
      <root>
        <mxCell id="0" />
        <mxCell id="1" parent="0" />
        <mxCell id="Iw_5PqYemz_-hnAskuGm-7" style="edgeStyle=orthogonalEdgeStyle;rounded=0;orthogonalLoop=1;jettySize=auto;html=1;entryX=0;entryY=0.5;entryDx=0;entryDy=0;curved=1;" edge="1" parent="1" source="Iw_5PqYemz_-hnAskuGm-1" target="Iw_5PqYemz_-hnAskuGm-6">
          <mxGeometry relative="1" as="geometry">
            <mxPoint x="500" y="490" as="targetPoint" />
          </mxGeometry>
        </mxCell>
        <mxCell id="Iw_5PqYemz_-hnAskuGm-8" style="edgeStyle=orthogonalEdgeStyle;curved=1;rounded=0;orthogonalLoop=1;jettySize=auto;html=1;entryX=0;entryY=0.5;entryDx=0;entryDy=0;" edge="1" parent="1" source="Iw_5PqYemz_-hnAskuGm-1" target="Iw_5PqYemz_-hnAskuGm-3">
          <mxGeometry relative="1" as="geometry" />
        </mxCell>
        <mxCell id="Iw_5PqYemz_-hnAskuGm-1" value="直方图" style="rounded=0;whiteSpace=wrap;html=1;" vertex="1" parent="1">
          <mxGeometry x="230" y="540" width="120" height="60" as="geometry" />
        </mxCell>
        <mxCell id="Iw_5PqYemz_-hnAskuGm-3" value="灰度" style="rounded=0;whiteSpace=wrap;html=1;" vertex="1" parent="1">
          <mxGeometry x="510" y="640" width="86" height="40" as="geometry" />
        </mxCell>
        <mxCell id="Iw_5PqYemz_-hnAskuGm-4" value="图片的鲜艳程度" style="text;html=1;strokeColor=none;fillColor=none;align=center;verticalAlign=middle;whiteSpace=wrap;rounded=0;" vertex="1" parent="1">
          <mxGeometry x="626" y="640" width="140" height="40" as="geometry" />
        </mxCell>
        <mxCell id="Iw_5PqYemz_-hnAskuGm-5" value="&amp;nbsp;避免颜色溢出" style="text;html=1;strokeColor=none;fillColor=none;align=center;verticalAlign=middle;whiteSpace=wrap;rounded=0;" vertex="1" parent="1">
          <mxGeometry x="816" y="640" width="140" height="40" as="geometry" />
        </mxCell>
        <mxCell id="Iw_5PqYemz_-hnAskuGm-6" value="曝光" style="rounded=0;whiteSpace=wrap;html=1;" vertex="1" parent="1">
          <mxGeometry x="510" y="470" width="86" height="40" as="geometry" />
        </mxCell>
        <mxCell id="Iw_5PqYemz_-hnAskuGm-9" value="层次感" style="rounded=0;whiteSpace=wrap;html=1;" vertex="1" parent="1">
          <mxGeometry x="280" y="905" width="86" height="30" as="geometry" />
        </mxCell>
        <mxCell id="Iw_5PqYemz_-hnAskuGm-10" value="对比度" style="rounded=0;whiteSpace=wrap;html=1;" vertex="1" parent="1">
          <mxGeometry x="400" y="810" width="86" height="40" as="geometry" />
        </mxCell>
        <mxCell id="Iw_5PqYemz_-hnAskuGm-15" value="" style="edgeStyle=orthogonalEdgeStyle;curved=1;rounded=0;orthogonalLoop=1;jettySize=auto;html=1;" edge="1" parent="1" source="Iw_5PqYemz_-hnAskuGm-11" target="Iw_5PqYemz_-hnAskuGm-12">
          <mxGeometry relative="1" as="geometry" />
        </mxCell>
        <mxCell id="Iw_5PqYemz_-hnAskuGm-11" value="高明度会突出, 向前进&lt;br&gt;低明度向后退" style="text;html=1;strokeColor=none;fillColor=none;align=center;verticalAlign=middle;whiteSpace=wrap;rounded=0;" vertex="1" parent="1">
          <mxGeometry x="636" y="875" width="130" height="60" as="geometry" />
        </mxCell>
        <mxCell id="Iw_5PqYemz_-hnAskuGm-12" value="在照片中增加主体的明度，让主题突出，背景的明度降低, 增加层次感" style="text;html=1;strokeColor=none;fillColor=none;align=center;verticalAlign=middle;whiteSpace=wrap;rounded=0;" vertex="1" parent="1">
          <mxGeometry x="827" y="880" width="270" height="50" as="geometry" />
        </mxCell>
        <mxCell id="Iw_5PqYemz_-hnAskuGm-14" value="" style="edgeStyle=orthogonalEdgeStyle;curved=1;rounded=0;orthogonalLoop=1;jettySize=auto;html=1;" edge="1" parent="1" source="Iw_5PqYemz_-hnAskuGm-13" target="Iw_5PqYemz_-hnAskuGm-11">
          <mxGeometry relative="1" as="geometry" />
        </mxCell>
        <mxCell id="Iw_5PqYemz_-hnAskuGm-13" value="基于黑白灰关系" style="rounded=0;whiteSpace=wrap;html=1;" vertex="1" parent="1">
          <mxGeometry x="470" y="885" width="102" height="40" as="geometry" />
        </mxCell>
        <mxCell id="Iw_5PqYemz_-hnAskuGm-18" value="" style="edgeStyle=orthogonalEdgeStyle;curved=1;rounded=0;orthogonalLoop=1;jettySize=auto;html=1;" edge="1" parent="1" source="Iw_5PqYemz_-hnAskuGm-16" target="Iw_5PqYemz_-hnAskuGm-17">
          <mxGeometry relative="1" as="geometry" />
        </mxCell>
        <mxCell id="Iw_5PqYemz_-hnAskuGm-16" value="基于色彩关系" style="rounded=0;whiteSpace=wrap;html=1;" vertex="1" parent="1">
          <mxGeometry x="470" y="970" width="102" height="30" as="geometry" />
        </mxCell>
        <mxCell id="Iw_5PqYemz_-hnAskuGm-20" value="" style="edgeStyle=orthogonalEdgeStyle;curved=1;rounded=0;orthogonalLoop=1;jettySize=auto;html=1;" edge="1" parent="1" source="Iw_5PqYemz_-hnAskuGm-17" target="Iw_5PqYemz_-hnAskuGm-19">
          <mxGeometry relative="1" as="geometry" />
        </mxCell>
        <mxCell id="Iw_5PqYemz_-hnAskuGm-17" value="暖色系向前进&lt;br&gt;冷色系向后退" style="text;html=1;strokeColor=none;fillColor=none;align=center;verticalAlign=middle;whiteSpace=wrap;rounded=0;" vertex="1" parent="1">
          <mxGeometry x="631" y="955" width="130" height="60" as="geometry" />
        </mxCell>
        <mxCell id="Iw_5PqYemz_-hnAskuGm-19" value="暖色: 红黄橙&lt;br&gt;冷色: 青蓝紫" style="text;html=1;strokeColor=none;fillColor=none;align=center;verticalAlign=middle;whiteSpace=wrap;rounded=0;" vertex="1" parent="1">
          <mxGeometry x="790" y="955" width="130" height="60" as="geometry" />
        </mxCell>
        <mxCell id="Iw_5PqYemz_-hnAskuGm-21" value="11" style="rounded=0;whiteSpace=wrap;html=1;" vertex="1" parent="1">
          <mxGeometry x="230" y="-330" width="120" height="60" as="geometry" />
        </mxCell>
        <mxCell id="Iw_5PqYemz_-hnAskuGm-23" value="12" style="rounded=0;whiteSpace=wrap;html=1;" vertex="1" parent="1">
          <mxGeometry x="230" y="-210" width="120" height="60" as="geometry" />
        </mxCell>
        <mxCell id="Iw_5PqYemz_-hnAskuGm-24" value="13" style="rounded=0;whiteSpace=wrap;html=1;" vertex="1" parent="1">
          <mxGeometry x="220" y="-100" width="120" height="60" as="geometry" />
        </mxCell>
        <mxCell id="Iw_5PqYemz_-hnAskuGm-25" value="14" style="rounded=0;whiteSpace=wrap;html=1;" vertex="1" parent="1">
          <mxGeometry x="220" width="120" height="60" as="geometry" />
        </mxCell>
        <mxCell id="Iw_5PqYemz_-hnAskuGm-26" value="15" style="rounded=0;whiteSpace=wrap;html=1;" vertex="1" parent="1">
          <mxGeometry x="220" y="100" width="120" height="60" as="geometry" />
        </mxCell>
        <mxCell id="Iw_5PqYemz_-hnAskuGm-27" value="16" style="rounded=0;whiteSpace=wrap;html=1;" vertex="1" parent="1">
          <mxGeometry x="220" y="210" width="120" height="60" as="geometry" />
        </mxCell>
        <mxCell id="Iw_5PqYemz_-hnAskuGm-28" value="zurich" style="text;html=1;strokeColor=none;fillColor=none;align=center;verticalAlign=middle;whiteSpace=wrap;rounded=0;fontSize=16;" vertex="1" parent="1">
          <mxGeometry x="536" y="-410" width="60" height="30" as="geometry" />
        </mxCell>
        <mxCell id="Iw_5PqYemz_-hnAskuGm-29" value="&lt;meta charset=&quot;utf-8&quot;&gt;&lt;h1 style=&quot;background: rgb(255, 255, 255); border: 0px; border-radius: 0px; font-style: normal; font-variant-ligatures: normal; font-variant-caps: normal; font-variant-numeric: inherit; font-variant-east-asian: inherit; font-weight: 400; font-stretch: inherit; font-size: 1.375rem; line-height: 1.75rem; font-family: &amp;quot;Google Sans&amp;quot;, Roboto, Arial, sans-serif; list-style: none; margin: 0px; outline: 0px; overflow: visible; padding: 0px; vertical-align: baseline; letter-spacing: normal; color: rgb(32, 33, 36); orphans: 2; text-align: left; text-indent: 0px; text-transform: none; widows: 2; word-spacing: 0px; -webkit-text-stroke-width: 0px; text-decoration-thickness: initial; text-decoration-style: initial; text-decoration-color: initial;&quot; class=&quot;DUwDvf fontHeadlineLarge&quot;&gt;&lt;span&gt;Bahnhofstrasse&lt;/span&gt;&lt;/h1&gt;" style="text;html=1;strokeColor=none;fillColor=none;align=center;verticalAlign=middle;whiteSpace=wrap;rounded=0;" vertex="1" parent="1">
          <mxGeometry x="680" y="-490" width="280" height="30" as="geometry" />
        </mxCell>
      </root>
    </mxGraphModel>
  </diagram>
</mxfile>
